<mxfile host="app.diagrams.net" modified="2023-09-12T04:48:48.661Z" agent="Mozilla/5.0 (Windows NT 10.0; Win64; x64) AppleWebKit/537.36 (KHTML, like Gecko) Chrome/116.0.0.0 Safari/537.36" etag="peJ3DmtaprHl9fcDRQWe" version="21.7.4" type="github">
  <diagram name="Page-1" id="FJ0Uge1J5Ejc2RVfcioo">
    <mxGraphModel dx="1290" dy="534" grid="1" gridSize="10" guides="1" tooltips="1" connect="1" arrows="1" fold="1" page="1" pageScale="1" pageWidth="1200" pageHeight="1600" background="none" math="0" shadow="0">
      <root>
        <mxCell id="0" />
        <mxCell id="1" parent="0" />
        <mxCell id="9L3Eex58Kygi_RTYH5CQ-2" value="&lt;font size=&quot;1&quot; style=&quot;&quot;&gt;&lt;b style=&quot;font-size: 20px;&quot;&gt;zuul&lt;/b&gt;&lt;/font&gt;" style="rounded=0;whiteSpace=wrap;html=1;labelBackgroundColor=none;" parent="1" vertex="1">
          <mxGeometry x="515.01" y="480" width="180" height="40" as="geometry" />
        </mxCell>
        <mxCell id="9L3Eex58Kygi_RTYH5CQ-3" value="&lt;span style=&quot;font-size: 20px;&quot;&gt;E&lt;br&gt;U&lt;br&gt;R&lt;br&gt;E&lt;br&gt;K&lt;br&gt;A&lt;br&gt;&lt;/span&gt;" style="rounded=0;whiteSpace=wrap;html=1;labelBackgroundColor=none;" parent="1" vertex="1">
          <mxGeometry x="245" y="610" width="50" height="430" as="geometry" />
        </mxCell>
        <mxCell id="9L3Eex58Kygi_RTYH5CQ-13" value="" style="endArrow=classic;startArrow=classic;html=1;rounded=0;entryX=0;entryY=0.5;entryDx=0;entryDy=0;labelBackgroundColor=none;fontColor=default;" parent="1" target="9L3Eex58Kygi_RTYH5CQ-2" edge="1">
          <mxGeometry width="50" height="50" relative="1" as="geometry">
            <mxPoint x="275" y="610" as="sourcePoint" />
            <mxPoint x="355" y="500" as="targetPoint" />
            <Array as="points">
              <mxPoint x="275" y="610" />
              <mxPoint x="275" y="500" />
            </Array>
          </mxGeometry>
        </mxCell>
        <mxCell id="9L3Eex58Kygi_RTYH5CQ-14" value="&lt;span style=&quot;font-size: 20px;&quot;&gt;&lt;b&gt;C&lt;br&gt;O&lt;br&gt;N&lt;br&gt;F&lt;br&gt;I&lt;br&gt;G&lt;br&gt;&lt;br&gt;S&lt;br&gt;E&lt;br&gt;R&lt;br&gt;V&lt;br&gt;I&lt;br&gt;C&lt;br&gt;E&lt;/b&gt;&lt;br&gt;&lt;/span&gt;" style="rounded=0;whiteSpace=wrap;html=1;labelBackgroundColor=none;strokeWidth=2;" parent="1" vertex="1">
          <mxGeometry x="905" y="610" width="50" height="430" as="geometry" />
        </mxCell>
        <mxCell id="9L3Eex58Kygi_RTYH5CQ-16" value="Service A" style="whiteSpace=wrap;html=1;aspect=fixed;rounded=0;labelBackgroundColor=none;" parent="1" vertex="1">
          <mxGeometry x="385" y="610" width="80" height="80" as="geometry" />
        </mxCell>
        <mxCell id="9L3Eex58Kygi_RTYH5CQ-18" value="Service A" style="whiteSpace=wrap;html=1;aspect=fixed;rounded=0;labelBackgroundColor=none;" parent="1" vertex="1">
          <mxGeometry x="565" y="610" width="80" height="80" as="geometry" />
        </mxCell>
        <mxCell id="9L3Eex58Kygi_RTYH5CQ-19" value="&lt;b&gt;&lt;font style=&quot;font-size: 15px;&quot;&gt;Service A&lt;/font&gt;&lt;/b&gt;" style="whiteSpace=wrap;html=1;aspect=fixed;rounded=0;labelBackgroundColor=none;strokeWidth=2;fillColor=#bac8d3;strokeColor=#23445d;" parent="1" vertex="1">
          <mxGeometry x="745" y="610" width="80" height="80" as="geometry" />
        </mxCell>
        <mxCell id="9L3Eex58Kygi_RTYH5CQ-20" value="Service B" style="whiteSpace=wrap;html=1;aspect=fixed;rounded=0;labelBackgroundColor=none;" parent="1" vertex="1">
          <mxGeometry x="385" y="780" width="80" height="80" as="geometry" />
        </mxCell>
        <mxCell id="9L3Eex58Kygi_RTYH5CQ-21" value="Service B" style="whiteSpace=wrap;html=1;aspect=fixed;rounded=0;labelBackgroundColor=none;" parent="1" vertex="1">
          <mxGeometry x="565" y="780" width="80" height="80" as="geometry" />
        </mxCell>
        <mxCell id="9L3Eex58Kygi_RTYH5CQ-22" value="Service B" style="whiteSpace=wrap;html=1;aspect=fixed;rounded=0;labelBackgroundColor=none;" parent="1" vertex="1">
          <mxGeometry x="745" y="780" width="80" height="80" as="geometry" />
        </mxCell>
        <mxCell id="9L3Eex58Kygi_RTYH5CQ-23" value="Service A" style="whiteSpace=wrap;html=1;aspect=fixed;rounded=0;labelBackgroundColor=none;" parent="1" vertex="1">
          <mxGeometry x="385" y="940" width="80" height="80" as="geometry" />
        </mxCell>
        <mxCell id="9L3Eex58Kygi_RTYH5CQ-24" value="Service A" style="whiteSpace=wrap;html=1;aspect=fixed;rounded=0;labelBackgroundColor=none;" parent="1" vertex="1">
          <mxGeometry x="565" y="940" width="80" height="80" as="geometry" />
        </mxCell>
        <mxCell id="9L3Eex58Kygi_RTYH5CQ-25" value="Service&amp;nbsp;" style="whiteSpace=wrap;html=1;aspect=fixed;rounded=0;labelBackgroundColor=none;" parent="1" vertex="1">
          <mxGeometry x="745" y="940" width="80" height="80" as="geometry" />
        </mxCell>
        <mxCell id="9L3Eex58Kygi_RTYH5CQ-29" value="" style="endArrow=classic;startArrow=classic;html=1;rounded=0;entryX=-0.01;entryY=0.486;entryDx=0;entryDy=0;entryPerimeter=0;labelBackgroundColor=none;fontColor=default;" parent="1" target="9L3Eex58Kygi_RTYH5CQ-14" edge="1">
          <mxGeometry width="50" height="50" relative="1" as="geometry">
            <mxPoint x="825" y="820" as="sourcePoint" />
            <mxPoint x="875" y="770" as="targetPoint" />
          </mxGeometry>
        </mxCell>
        <mxCell id="9L3Eex58Kygi_RTYH5CQ-30" value="" style="endArrow=classic;startArrow=classic;html=1;rounded=0;entryX=-0.01;entryY=0.486;entryDx=0;entryDy=0;entryPerimeter=0;exitX=1.007;exitY=0.488;exitDx=0;exitDy=0;exitPerimeter=0;labelBackgroundColor=none;fontColor=default;" parent="1" source="9L3Eex58Kygi_RTYH5CQ-3" edge="1">
          <mxGeometry width="50" height="50" relative="1" as="geometry">
            <mxPoint x="305" y="820.5" as="sourcePoint" />
            <mxPoint x="385" y="819.5" as="targetPoint" />
          </mxGeometry>
        </mxCell>
        <mxCell id="9L3Eex58Kygi_RTYH5CQ-31" value="" style="endArrow=classic;html=1;rounded=0;exitX=0;exitY=1;exitDx=0;exitDy=0;entryX=0.75;entryY=0;entryDx=0;entryDy=0;labelBackgroundColor=none;fontColor=default;" parent="1" source="9L3Eex58Kygi_RTYH5CQ-19" target="9L3Eex58Kygi_RTYH5CQ-21" edge="1">
          <mxGeometry width="50" height="50" relative="1" as="geometry">
            <mxPoint x="665" y="770" as="sourcePoint" />
            <mxPoint x="715" y="720" as="targetPoint" />
          </mxGeometry>
        </mxCell>
        <mxCell id="9L3Eex58Kygi_RTYH5CQ-32" value="" style="endArrow=classic;startArrow=classic;html=1;rounded=0;entryX=-0.01;entryY=0.486;entryDx=0;entryDy=0;entryPerimeter=0;labelBackgroundColor=none;fontColor=default;" parent="1" edge="1">
          <mxGeometry width="50" height="50" relative="1" as="geometry">
            <mxPoint x="825" y="650.09" as="sourcePoint" />
            <mxPoint x="905" y="649.09" as="targetPoint" />
          </mxGeometry>
        </mxCell>
        <mxCell id="9L3Eex58Kygi_RTYH5CQ-33" value="" style="endArrow=classic;startArrow=classic;html=1;rounded=0;entryX=-0.01;entryY=0.486;entryDx=0;entryDy=0;entryPerimeter=0;exitX=1.007;exitY=0.488;exitDx=0;exitDy=0;exitPerimeter=0;labelBackgroundColor=none;fontColor=default;" parent="1" edge="1">
          <mxGeometry width="50" height="50" relative="1" as="geometry">
            <mxPoint x="295" y="649.59" as="sourcePoint" />
            <mxPoint x="385" y="649.09" as="targetPoint" />
          </mxGeometry>
        </mxCell>
        <mxCell id="9L3Eex58Kygi_RTYH5CQ-34" value="" style="ellipse;shape=cloud;whiteSpace=wrap;html=1;rounded=0;labelBackgroundColor=none;" parent="1" vertex="1">
          <mxGeometry x="545" y="280" width="120" height="80" as="geometry" />
        </mxCell>
        <mxCell id="9L3Eex58Kygi_RTYH5CQ-37" value="" style="shape=singleArrow;whiteSpace=wrap;html=1;arrowWidth=0.4;arrowSize=0.4;rotation=90;rounded=0;labelBackgroundColor=none;" parent="1" vertex="1">
          <mxGeometry x="545.63" y="409.38" width="118.75" height="10" as="geometry" />
        </mxCell>
        <mxCell id="VuWIRjLc-qSiB96BsqGt-7" value="&lt;h1&gt;Services&lt;/h1&gt;" style="text;html=1;strokeColor=none;fillColor=none;spacing=5;spacingTop=-20;whiteSpace=wrap;overflow=hidden;rounded=0;" parent="1" vertex="1">
          <mxGeometry x="543" y="40" width="115" height="50" as="geometry" />
        </mxCell>
      </root>
    </mxGraphModel>
  </diagram>
</mxfile>
